<svg xmlns="http://www.w3.org/2000/svg" xmlns:xlink="http://www.w3.org/1999/xlink" width="64" zoomAndPan="magnify" viewBox="0 0 48 48" height="64" preserveAspectRatio="xMidYMid meet" version="1.0"><defs><clipPath id="74ec81e18b"><path d="M 0.488281 0 L 47.507812 0 L 47.507812 47.019531 L 0.488281 47.019531 Z M 0.488281 0 " clip-rule="nonzero"/></clipPath><clipPath id="5dc32f7839"><path d="M 11.117188 0 L 36.832031 0 L 36.832031 47.019531 L 11.117188 47.019531 Z M 11.117188 0 " clip-rule="nonzero"/></clipPath></defs><g clip-path="url(#74ec81e18b)"><path fill="#ffffff" d="M 0.488281 0 L 47.511719 0 L 47.511719 47.019531 L 0.488281 47.019531 Z M 0.488281 0 " fill-opacity="1" fill-rule="nonzero"/><path fill="#f5f5f5" d="M 0.488281 0 L 47.511719 0 L 47.511719 47.019531 L 0.488281 47.019531 Z M 0.488281 0 " fill-opacity="1" fill-rule="nonzero"/></g><g clip-path="url(#5dc32f7839)"><path fill="#ed1c24" d="M 35.46875 20.371094 C 35.253906 20.917969 34.996094 21.421875 34.707031 21.894531 C 34.132812 22.839844 33.4375 23.675781 32.6875 24.507812 C 31.933594 25.335938 31.125 26.15625 30.304688 27.027344 C 29.480469 27.894531 28.644531 28.8125 27.847656 29.847656 C 27.652344 30.109375 27.457031 30.378906 27.265625 30.652344 C 27.078125 30.929688 26.894531 31.21875 26.714844 31.511719 C 26.363281 32.109375 26.035156 32.746094 25.773438 33.441406 C 25.710938 33.617188 25.644531 33.789062 25.589844 33.972656 C 25.5625 34.0625 25.535156 34.152344 25.507812 34.242188 L 25.4375 34.519531 C 25.339844 34.886719 25.277344 35.273438 25.230469 35.660156 C 25.144531 36.433594 25.175781 37.234375 25.332031 37.996094 C 25.488281 38.753906 25.757812 39.464844 26.109375 40.101562 C 26.457031 40.738281 26.878906 41.300781 27.339844 41.800781 C 27.800781 42.304688 28.308594 42.730469 28.839844 43.113281 C 28.976562 43.207031 29.105469 43.300781 29.242188 43.390625 L 29.660156 43.640625 C 29.800781 43.722656 29.941406 43.800781 30.089844 43.875 C 30.234375 43.949219 30.382812 44.019531 30.53125 44.085938 C 30.472656 43.929688 30.40625 43.78125 30.34375 43.632812 C 30.3125 43.558594 30.28125 43.488281 30.246094 43.417969 C 30.214844 43.34375 30.1875 43.269531 30.15625 43.195312 L 29.96875 42.765625 C 29.910156 42.621094 29.851562 42.480469 29.792969 42.339844 C 29.5625 41.773438 29.347656 41.222656 29.183594 40.679688 C 29.015625 40.136719 28.886719 39.609375 28.816406 39.105469 C 28.746094 38.601562 28.730469 38.121094 28.769531 37.667969 C 28.773438 37.554688 28.796875 37.445312 28.808594 37.335938 C 28.820312 37.222656 28.851562 37.117188 28.867188 37.007812 C 28.890625 36.898438 28.921875 36.792969 28.941406 36.6875 L 29.039062 36.371094 C 29.109375 36.160156 29.1875 35.953125 29.28125 35.742188 L 29.351562 35.585938 C 29.375 35.535156 29.402344 35.484375 29.429688 35.429688 C 29.476562 35.324219 29.53125 35.21875 29.589844 35.117188 C 30.035156 34.273438 30.65625 33.410156 31.335938 32.515625 C 32.015625 31.617188 32.765625 30.6875 33.496094 29.6875 C 34.226562 28.6875 34.949219 27.617188 35.546875 26.421875 C 35.847656 25.824219 36.113281 25.199219 36.324219 24.546875 C 36.535156 23.894531 36.691406 23.210938 36.757812 22.523438 C 36.828125 21.832031 36.808594 21.132812 36.6875 20.46875 C 36.5625 19.800781 36.34375 19.164062 36.007812 18.601562 C 35.859375 19.238281 35.691406 19.828125 35.46875 20.371094 Z M 33.007812 10.542969 C 32.765625 11.359375 32.457031 12.128906 32.089844 12.859375 C 31.355469 14.324219 30.398438 15.640625 29.351562 16.921875 C 28.296875 18.199219 27.148438 19.441406 25.980469 20.726562 C 24.8125 22.011719 23.621094 23.339844 22.5 24.804688 C 22.222656 25.171875 21.949219 25.550781 21.679688 25.9375 C 21.414062 26.324219 21.152344 26.722656 20.902344 27.132812 C 20.402344 27.953125 19.945312 28.832031 19.578125 29.773438 C 19.207031 30.714844 18.925781 31.722656 18.789062 32.761719 C 18.652344 33.804688 18.675781 34.878906 18.855469 35.90625 C 19.035156 36.933594 19.371094 37.914062 19.8125 38.800781 C 20.253906 39.691406 20.800781 40.5 21.398438 41.226562 C 21.554688 41.40625 21.703125 41.589844 21.859375 41.761719 C 22.023438 41.933594 22.183594 42.101562 22.347656 42.265625 C 22.507812 42.433594 22.683594 42.585938 22.851562 42.746094 C 22.933594 42.824219 23.019531 42.902344 23.105469 42.976562 C 23.191406 43.054688 23.28125 43.125 23.371094 43.199219 C 23.546875 43.34375 23.722656 43.492188 23.902344 43.632812 L 24.453125 44.035156 C 24.546875 44.101562 24.640625 44.167969 24.734375 44.234375 C 24.828125 44.296875 24.921875 44.359375 25.019531 44.417969 C 25.210938 44.539062 25.402344 44.660156 25.601562 44.777344 C 25.496094 44.574219 25.382812 44.375 25.273438 44.179688 C 25.21875 44.082031 25.164062 43.984375 25.105469 43.886719 C 25.050781 43.789062 25 43.691406 24.949219 43.59375 L 24.625 43.011719 C 24.527344 42.8125 24.421875 42.621094 24.320312 42.429688 C 23.925781 41.648438 23.542969 40.882812 23.242188 40.105469 C 22.9375 39.332031 22.6875 38.5625 22.523438 37.804688 C 22.359375 37.046875 22.28125 36.300781 22.292969 35.582031 C 22.296875 35.492188 22.289062 35.402344 22.300781 35.3125 C 22.308594 35.222656 22.316406 35.132812 22.320312 35.042969 L 22.328125 34.910156 C 22.332031 34.867188 22.339844 34.824219 22.347656 34.777344 L 22.378906 34.515625 C 22.390625 34.425781 22.410156 34.339844 22.425781 34.253906 L 22.472656 33.992188 C 22.515625 33.820312 22.554688 33.648438 22.597656 33.476562 C 22.695312 33.132812 22.804688 32.792969 22.941406 32.457031 L 23.039062 32.203125 L 23.152344 31.949219 C 23.222656 31.78125 23.308594 31.617188 23.390625 31.449219 C 24.054688 30.109375 24.980469 28.796875 25.988281 27.46875 C 26.996094 26.144531 28.097656 24.804688 29.171875 23.390625 C 30.25 21.972656 31.3125 20.480469 32.210938 18.835938 C 32.660156 18.015625 33.066406 17.15625 33.398438 16.261719 C 33.734375 15.371094 33.992188 14.4375 34.140625 13.488281 C 34.441406 11.59375 34.261719 9.628906 33.511719 7.964844 C 33.402344 8.871094 33.246094 9.730469 33.007812 10.542969 Z M 29.585938 -0.00390625 C 29.996094 1.070312 30.238281 2.222656 30.320312 3.402344 C 30.402344 4.582031 30.320312 5.789062 30.101562 6.96875 C 29.882812 8.152344 29.53125 9.308594 29.085938 10.417969 C 28.644531 11.53125 28.109375 12.597656 27.527344 13.621094 C 26.355469 15.667969 24.988281 17.542969 23.597656 19.332031 C 22.210938 21.121094 20.792969 22.828125 19.488281 24.542969 C 18.191406 26.257812 16.988281 27.976562 16.128906 29.761719 L 15.96875 30.097656 C 15.914062 30.207031 15.871094 30.320312 15.824219 30.433594 L 15.675781 30.773438 L 15.550781 31.113281 C 15.375 31.566406 15.238281 32.023438 15.117188 32.484375 C 15.082031 32.601562 15.066406 32.71875 15.039062 32.832031 C 15.011719 32.949219 14.984375 33.066406 14.960938 33.183594 L 14.90625 33.535156 C 14.890625 33.652344 14.863281 33.769531 14.855469 33.886719 L 14.820312 34.242188 C 14.8125 34.300781 14.804688 34.359375 14.800781 34.421875 L 14.792969 34.597656 C 14.789062 34.71875 14.785156 34.835938 14.777344 34.957031 C 14.773438 35.019531 14.773438 35.078125 14.773438 35.136719 L 14.777344 35.316406 C 14.789062 36.28125 14.921875 37.265625 15.171875 38.25 C 15.421875 39.238281 15.78125 40.226562 16.210938 41.210938 C 16.636719 42.195312 17.160156 43.160156 17.710938 44.125 C 17.851562 44.367188 17.996094 44.605469 18.132812 44.851562 L 18.578125 45.566406 C 18.648438 45.6875 18.722656 45.8125 18.796875 45.929688 C 18.871094 46.050781 18.949219 46.167969 19.027344 46.289062 C 19.179688 46.527344 19.332031 46.769531 19.480469 47.019531 C 19.242188 46.859375 19.007812 46.695312 18.773438 46.527344 C 18.65625 46.445312 18.539062 46.359375 18.421875 46.277344 C 18.308594 46.191406 18.195312 46.101562 18.082031 46.011719 L 17.410156 45.472656 C 17.191406 45.285156 16.980469 45.089844 16.761719 44.898438 C 16.65625 44.800781 16.542969 44.703125 16.4375 44.605469 C 16.335938 44.503906 16.234375 44.402344 16.128906 44.296875 L 15.667969 43.835938 L 15.515625 43.671875 C 15.316406 43.460938 15.125 43.238281 14.925781 43.019531 C 14.738281 42.792969 14.554688 42.5625 14.367188 42.332031 C 13.640625 41.390625 12.988281 40.367188 12.460938 39.25 C 11.9375 38.132812 11.542969 36.914062 11.339844 35.644531 C 11.136719 34.375 11.125 33.054688 11.308594 31.773438 C 11.492188 30.492188 11.847656 29.25 12.316406 28.089844 C 12.78125 26.921875 13.355469 25.832031 13.984375 24.804688 C 14.144531 24.550781 14.300781 24.292969 14.46875 24.042969 C 14.632812 23.796875 14.792969 23.542969 14.964844 23.304688 C 15.304688 22.820312 15.652344 22.34375 16.003906 21.878906 C 17.421875 20.023438 18.929688 18.328125 20.40625 16.667969 C 21.886719 15.007812 23.34375 13.390625 24.664062 11.703125 C 25.984375 10.019531 27.175781 8.269531 28.050781 6.339844 C 28.488281 5.375 28.847656 4.367188 29.109375 3.308594 C 29.367188 2.25 29.511719 1.144531 29.585938 -0.00390625 " fill-opacity="1" fill-rule="nonzero"/></g></svg>