<svg xmlns="http://www.w3.org/2000/svg" xmlns:xlink="http://www.w3.org/1999/xlink" width="250" zoomAndPan="magnify" viewBox="0 0 187.5 112.499997" height="150" preserveAspectRatio="xMidYMid meet" version="1.0"><defs><g/><clipPath id="2613c2b32e"><path d="M 0.164062 0 L 186.835938 0 L 186.835938 112.003906 L 0.164062 112.003906 Z M 0.164062 0 " clip-rule="nonzero"/></clipPath><clipPath id="1d0d370aa9"><path d="M 10.65625 19.15625 L 50.976562 19.15625 L 50.976562 93.078125 L 10.65625 93.078125 Z M 10.65625 19.15625 " clip-rule="nonzero"/></clipPath><clipPath id="82ce3efec9"><rect x="0" width="126" y="0" height="24"/></clipPath><clipPath id="a0b5609e99"><rect x="0" width="116" y="0" height="9"/></clipPath></defs><g clip-path="url(#2613c2b32e)"><path fill="#ffffff" d="M 0.164062 0 L 186.835938 0 L 186.835938 112.003906 L 0.164062 112.003906 Z M 0.164062 0 " fill-opacity="1" fill-rule="nonzero"/><path fill="#ffffff" d="M 0.164062 0 L 186.835938 0 L 186.835938 112.003906 L 0.164062 112.003906 Z M 0.164062 0 " fill-opacity="1" fill-rule="nonzero"/></g><g clip-path="url(#1d0d370aa9)"><path fill="#ed1c24" d="M 48.839844 51.183594 C 48.5 52.042969 48.09375 52.832031 47.640625 53.574219 C 46.742188 55.0625 45.648438 56.375 44.476562 57.683594 C 43.296875 58.988281 42.027344 60.277344 40.738281 61.644531 C 39.449219 63.011719 38.136719 64.453125 36.890625 66.082031 C 36.582031 66.492188 36.277344 66.914062 35.976562 67.347656 C 35.683594 67.785156 35.394531 68.234375 35.113281 68.699219 C 34.558594 69.632812 34.046875 70.640625 33.640625 71.730469 C 33.539062 72.003906 33.4375 72.277344 33.351562 72.5625 C 33.304688 72.703125 33.265625 72.847656 33.222656 72.988281 L 33.109375 73.425781 C 32.957031 74.003906 32.859375 74.609375 32.785156 75.214844 C 32.648438 76.433594 32.703125 77.695312 32.945312 78.886719 C 33.1875 80.082031 33.613281 81.203125 34.160156 82.203125 C 34.707031 83.203125 35.367188 84.089844 36.09375 84.875 C 36.8125 85.660156 37.613281 86.332031 38.445312 86.933594 C 38.65625 87.082031 38.863281 87.230469 39.078125 87.367188 L 39.730469 87.765625 C 39.953125 87.894531 40.171875 88.019531 40.40625 88.132812 C 40.632812 88.246094 40.859375 88.359375 41.09375 88.464844 C 41 88.21875 40.902344 87.988281 40.800781 87.753906 C 40.753906 87.640625 40.699219 87.527344 40.648438 87.414062 C 40.601562 87.296875 40.554688 87.183594 40.503906 87.066406 L 40.210938 86.390625 C 40.121094 86.164062 40.027344 85.941406 39.9375 85.71875 C 39.578125 84.832031 39.238281 83.964844 38.980469 83.109375 C 38.71875 82.257812 38.519531 81.429688 38.410156 80.632812 C 38.296875 79.839844 38.277344 79.085938 38.335938 78.375 C 38.34375 78.199219 38.375 78.023438 38.398438 77.851562 C 38.410156 77.679688 38.460938 77.507812 38.488281 77.335938 C 38.519531 77.167969 38.570312 77 38.605469 76.835938 L 38.757812 76.335938 C 38.867188 76.007812 38.992188 75.679688 39.136719 75.351562 L 39.242188 75.105469 C 39.285156 75.023438 39.328125 74.941406 39.367188 74.859375 C 39.441406 74.691406 39.53125 74.527344 39.617188 74.363281 C 40.320312 73.035156 41.289062 71.679688 42.355469 70.273438 C 43.425781 68.863281 44.597656 67.402344 45.742188 65.832031 C 46.886719 64.257812 48.019531 62.570312 48.960938 60.695312 C 49.429688 59.757812 49.847656 58.773438 50.179688 57.746094 C 50.507812 56.71875 50.75 55.648438 50.859375 54.5625 C 50.964844 53.480469 50.9375 52.382812 50.746094 51.332031 C 50.550781 50.285156 50.207031 49.285156 49.683594 48.398438 C 49.449219 49.402344 49.1875 50.328125 48.839844 51.183594 Z M 44.976562 35.734375 C 44.597656 37.015625 44.113281 38.226562 43.535156 39.375 C 42.386719 41.675781 40.890625 43.746094 39.246094 45.757812 C 37.59375 47.769531 35.792969 49.722656 33.960938 51.742188 C 32.132812 53.761719 30.265625 55.847656 28.507812 58.152344 C 28.070312 58.730469 27.640625 59.324219 27.21875 59.929688 C 26.800781 60.542969 26.394531 61.167969 26 61.8125 C 25.21875 63.105469 24.503906 64.484375 23.925781 65.964844 C 23.34375 67.441406 22.90625 69.027344 22.6875 70.664062 C 22.472656 72.300781 22.507812 73.992188 22.792969 75.605469 C 23.070312 77.222656 23.597656 78.761719 24.292969 80.15625 C 24.984375 81.558594 25.839844 82.824219 26.78125 83.972656 C 27.023438 84.253906 27.257812 84.539062 27.503906 84.8125 C 27.757812 85.078125 28.007812 85.34375 28.265625 85.605469 C 28.515625 85.871094 28.789062 86.109375 29.054688 86.355469 C 29.1875 86.480469 29.320312 86.605469 29.453125 86.722656 C 29.589844 86.84375 29.730469 86.957031 29.871094 87.070312 C 30.148438 87.300781 30.417969 87.53125 30.703125 87.75 L 31.570312 88.386719 C 31.714844 88.492188 31.859375 88.59375 32.007812 88.695312 C 32.15625 88.792969 32.304688 88.894531 32.457031 88.988281 C 32.757812 89.179688 33.058594 89.371094 33.363281 89.550781 C 33.199219 89.230469 33.027344 88.917969 32.851562 88.609375 C 32.769531 88.457031 32.679688 88.304688 32.589844 88.152344 C 32.503906 88 32.425781 87.84375 32.34375 87.6875 L 31.835938 86.773438 C 31.679688 86.464844 31.515625 86.164062 31.359375 85.859375 C 30.738281 84.636719 30.140625 83.429688 29.667969 82.210938 C 29.1875 80.996094 28.796875 79.78125 28.539062 78.589844 C 28.285156 77.398438 28.160156 76.226562 28.179688 75.09375 C 28.1875 74.953125 28.175781 74.8125 28.191406 74.671875 C 28.207031 74.53125 28.214844 74.390625 28.222656 74.25 L 28.238281 74.039062 C 28.242188 73.972656 28.253906 73.902344 28.261719 73.832031 L 28.316406 73.417969 C 28.332031 73.28125 28.363281 73.144531 28.386719 73.007812 L 28.460938 72.597656 C 28.527344 72.324219 28.589844 72.054688 28.660156 71.785156 C 28.8125 71.246094 28.984375 70.710938 29.195312 70.179688 L 29.351562 69.785156 L 29.53125 69.386719 C 29.640625 69.121094 29.773438 68.859375 29.902344 68.597656 C 30.945312 66.492188 32.394531 64.425781 33.972656 62.34375 C 35.554688 60.257812 37.277344 58.152344 38.964844 55.929688 C 40.652344 53.703125 42.320312 51.351562 43.730469 48.769531 C 44.433594 47.480469 45.070312 46.132812 45.59375 44.722656 C 46.117188 43.320312 46.523438 41.855469 46.753906 40.363281 C 47.222656 37.382812 46.941406 34.292969 45.769531 31.675781 C 45.597656 33.101562 45.351562 34.453125 44.976562 35.734375 Z M 39.613281 19.152344 C 40.253906 20.839844 40.636719 22.652344 40.761719 24.507812 C 40.890625 26.359375 40.765625 28.253906 40.421875 30.113281 C 40.078125 31.96875 39.523438 33.789062 38.828125 35.535156 C 38.136719 37.285156 37.300781 38.960938 36.382812 40.570312 C 34.550781 43.789062 32.402344 46.734375 30.230469 49.550781 C 28.054688 52.363281 25.832031 55.046875 23.785156 57.742188 C 21.75 60.433594 19.863281 63.136719 18.515625 65.945312 L 18.265625 66.472656 C 18.179688 66.648438 18.113281 66.828125 18.035156 67.003906 L 17.808594 67.535156 L 17.609375 68.066406 C 17.335938 68.78125 17.121094 69.5 16.929688 70.226562 C 16.878906 70.410156 16.851562 70.59375 16.808594 70.773438 C 16.769531 70.957031 16.722656 71.140625 16.6875 71.324219 L 16.601562 71.875 C 16.574219 72.0625 16.535156 72.246094 16.523438 72.429688 L 16.464844 72.988281 C 16.453125 73.082031 16.441406 73.175781 16.4375 73.269531 L 16.425781 73.550781 C 16.417969 73.738281 16.410156 73.925781 16.398438 74.113281 C 16.390625 74.207031 16.390625 74.304688 16.394531 74.398438 L 16.398438 74.679688 C 16.414062 76.195312 16.628906 77.742188 17.015625 79.292969 C 17.40625 80.84375 17.96875 82.398438 18.648438 83.941406 C 19.316406 85.492188 20.136719 87.007812 21 88.527344 C 21.21875 88.90625 21.441406 89.28125 21.660156 89.667969 L 22.355469 90.792969 C 22.46875 90.984375 22.582031 91.175781 22.699219 91.367188 C 22.820312 91.550781 22.941406 91.738281 23.058594 91.929688 C 23.296875 92.304688 23.535156 92.683594 23.769531 93.074219 C 23.394531 92.824219 23.027344 92.566406 22.660156 92.304688 C 22.476562 92.175781 22.296875 92.042969 22.113281 91.910156 C 21.933594 91.773438 21.757812 91.632812 21.582031 91.492188 L 20.523438 90.644531 C 20.179688 90.351562 19.851562 90.042969 19.507812 89.738281 C 19.339844 89.585938 19.167969 89.4375 19.003906 89.28125 C 18.839844 89.125 18.679688 88.960938 18.519531 88.800781 L 18.035156 88.3125 L 17.792969 88.070312 L 17.558594 87.816406 C 17.246094 87.480469 16.941406 87.132812 16.632812 86.789062 C 16.335938 86.433594 16.050781 86.070312 15.757812 85.707031 C 14.617188 84.230469 13.59375 82.621094 12.769531 80.859375 C 11.945312 79.105469 11.328125 77.191406 11.011719 75.191406 C 10.691406 73.195312 10.671875 71.121094 10.960938 69.105469 C 11.246094 67.09375 11.804688 65.144531 12.539062 63.316406 C 13.269531 61.484375 14.171875 59.765625 15.15625 58.152344 C 15.40625 57.753906 15.652344 57.347656 15.910156 56.957031 C 16.171875 56.570312 16.425781 56.171875 16.691406 55.792969 C 17.226562 55.03125 17.769531 54.28125 18.320312 53.554688 C 20.542969 50.636719 22.90625 47.972656 25.226562 45.363281 C 27.542969 42.753906 29.824219 40.207031 31.902344 37.558594 C 33.964844 34.90625 35.832031 32.15625 37.207031 29.125 C 37.894531 27.609375 38.457031 26.019531 38.863281 24.355469 C 39.269531 22.691406 39.5 20.957031 39.613281 19.152344 " fill-opacity="1" fill-rule="nonzero"/></g><g transform="matrix(1, 0, 0, 1, 52, 36)"><g clip-path="url(#82ce3efec9)"><g fill="#191919" fill-opacity="1"><g transform="translate(0.70407, 17.643911)"><g><path d="M 1.546875 -13.0625 L 4.578125 -13.0625 L 4.578125 0 L 1.546875 0 Z M 1.546875 -13.0625 "/></g></g></g><g fill="#191919" fill-opacity="1"><g transform="translate(8.1669, 17.643911)"><g><path d="M 13.4375 0 L 13.40625 -7.828125 L 9.578125 -1.375 L 8.203125 -1.375 L 4.390625 -7.671875 L 4.390625 0 L 1.546875 0 L 1.546875 -13.0625 L 4.046875 -13.0625 L 8.9375 -4.9375 L 13.75 -13.0625 L 16.234375 -13.0625 L 16.265625 0 Z M 13.4375 0 "/></g></g></g><g fill="#191919" fill-opacity="1"><g transform="translate(27.326369, 17.643911)"><g><path d="M 1.546875 -13.0625 L 4.578125 -13.0625 L 4.578125 0 L 1.546875 0 Z M 1.546875 -13.0625 "/></g></g></g><g fill="#191919" fill-opacity="1"><g transform="translate(34.7892, 17.643911)"><g/></g></g><g fill="#191919" fill-opacity="1"><g transform="translate(41.412558, 17.643911)"><g><path d="M 1.546875 -13.0625 L 7.484375 -13.0625 C 8.898438 -13.0625 10.148438 -12.789062 11.234375 -12.25 C 12.328125 -11.707031 13.175781 -10.941406 13.78125 -9.953125 C 14.382812 -8.972656 14.6875 -7.832031 14.6875 -6.53125 C 14.6875 -5.226562 14.382812 -4.082031 13.78125 -3.09375 C 13.175781 -2.113281 12.328125 -1.351562 11.234375 -0.8125 C 10.148438 -0.269531 8.898438 0 7.484375 0 L 1.546875 0 Z M 7.328125 -2.484375 C 8.640625 -2.484375 9.679688 -2.847656 10.453125 -3.578125 C 11.234375 -4.304688 11.625 -5.289062 11.625 -6.53125 C 11.625 -7.769531 11.234375 -8.753906 10.453125 -9.484375 C 9.679688 -10.210938 8.640625 -10.578125 7.328125 -10.578125 L 4.578125 -10.578125 L 4.578125 -2.484375 Z M 7.328125 -2.484375 "/></g></g></g><g fill="#191919" fill-opacity="1"><g transform="translate(58.16554, 17.643911)"><g><path d="M 11.65625 -2.421875 L 11.65625 0 L 1.546875 0 L 1.546875 -13.0625 L 11.421875 -13.0625 L 11.421875 -10.640625 L 4.546875 -10.640625 L 4.546875 -7.796875 L 10.609375 -7.796875 L 10.609375 -5.453125 L 4.546875 -5.453125 L 4.546875 -2.421875 Z M 11.65625 -2.421875 "/></g></g></g><g fill="#191919" fill-opacity="1"><g transform="translate(72.027005, 17.643911)"><g><path d="M 5.84375 0.21875 C 4.8125 0.21875 3.8125 0.0820312 2.84375 -0.1875 C 1.882812 -0.46875 1.109375 -0.832031 0.515625 -1.28125 L 1.546875 -3.5625 C 2.109375 -3.15625 2.773438 -2.828125 3.546875 -2.578125 C 4.316406 -2.328125 5.085938 -2.203125 5.859375 -2.203125 C 6.710938 -2.203125 7.34375 -2.328125 7.75 -2.578125 C 8.164062 -2.835938 8.375 -3.175781 8.375 -3.59375 C 8.375 -3.90625 8.253906 -4.164062 8.015625 -4.375 C 7.773438 -4.582031 7.460938 -4.75 7.078125 -4.875 C 6.703125 -5 6.191406 -5.132812 5.546875 -5.28125 C 4.546875 -5.519531 3.726562 -5.753906 3.09375 -5.984375 C 2.457031 -6.222656 1.910156 -6.601562 1.453125 -7.125 C 1.003906 -7.644531 0.78125 -8.34375 0.78125 -9.21875 C 0.78125 -9.976562 0.984375 -10.664062 1.390625 -11.28125 C 1.804688 -11.894531 2.425781 -12.378906 3.25 -12.734375 C 4.082031 -13.097656 5.09375 -13.28125 6.28125 -13.28125 C 7.113281 -13.28125 7.925781 -13.179688 8.71875 -12.984375 C 9.519531 -12.785156 10.222656 -12.5 10.828125 -12.125 L 9.890625 -9.828125 C 8.679688 -10.515625 7.472656 -10.859375 6.265625 -10.859375 C 5.421875 -10.859375 4.796875 -10.71875 4.390625 -10.4375 C 3.984375 -10.164062 3.78125 -9.804688 3.78125 -9.359375 C 3.78125 -8.910156 4.015625 -8.578125 4.484375 -8.359375 C 4.953125 -8.148438 5.664062 -7.9375 6.625 -7.71875 C 7.613281 -7.488281 8.425781 -7.253906 9.0625 -7.015625 C 9.695312 -6.773438 10.238281 -6.398438 10.6875 -5.890625 C 11.144531 -5.378906 11.375 -4.691406 11.375 -3.828125 C 11.375 -3.078125 11.164062 -2.394531 10.75 -1.78125 C 10.332031 -1.164062 9.707031 -0.675781 8.875 -0.3125 C 8.039062 0.0390625 7.03125 0.21875 5.84375 0.21875 Z M 5.84375 0.21875 "/></g></g></g><g fill="#191919" fill-opacity="1"><g transform="translate(85.272856, 17.643911)"><g><path d="M 1.546875 -13.0625 L 4.578125 -13.0625 L 4.578125 0 L 1.546875 0 Z M 1.546875 -13.0625 "/></g></g></g><g fill="#191919" fill-opacity="1"><g transform="translate(92.735686, 17.643911)"><g><path d="M 10.375 -6.734375 L 13.140625 -6.734375 L 13.140625 -1.4375 C 12.429688 -0.90625 11.609375 -0.492188 10.671875 -0.203125 C 9.734375 0.078125 8.796875 0.21875 7.859375 0.21875 C 6.503906 0.21875 5.285156 -0.0664062 4.203125 -0.640625 C 3.117188 -1.222656 2.269531 -2.023438 1.65625 -3.046875 C 1.039062 -4.078125 0.734375 -5.238281 0.734375 -6.53125 C 0.734375 -7.820312 1.039062 -8.976562 1.65625 -10 C 2.269531 -11.03125 3.125 -11.832031 4.21875 -12.40625 C 5.3125 -12.988281 6.539062 -13.28125 7.90625 -13.28125 C 9.050781 -13.28125 10.085938 -13.085938 11.015625 -12.703125 C 11.953125 -12.316406 12.738281 -11.757812 13.375 -11.03125 L 11.4375 -9.234375 C 10.5 -10.210938 9.375 -10.703125 8.0625 -10.703125 C 7.226562 -10.703125 6.488281 -10.523438 5.84375 -10.171875 C 5.195312 -9.828125 4.691406 -9.335938 4.328125 -8.703125 C 3.960938 -8.078125 3.78125 -7.351562 3.78125 -6.53125 C 3.78125 -5.71875 3.960938 -4.992188 4.328125 -4.359375 C 4.691406 -3.734375 5.191406 -3.238281 5.828125 -2.875 C 6.472656 -2.519531 7.203125 -2.34375 8.015625 -2.34375 C 8.890625 -2.34375 9.675781 -2.53125 10.375 -2.90625 Z M 10.375 -6.734375 "/></g></g></g><g fill="#191919" fill-opacity="1"><g transform="translate(108.462652, 17.643911)"><g><path d="M 13.53125 -13.0625 L 13.53125 0 L 11.046875 0 L 4.53125 -7.921875 L 4.53125 0 L 1.546875 0 L 1.546875 -13.0625 L 4.046875 -13.0625 L 10.546875 -5.125 L 10.546875 -13.0625 Z M 13.53125 -13.0625 "/></g></g></g></g></g><g transform="matrix(1, 0, 0, 1, 52, 58)"><g clip-path="url(#a0b5609e99)"><g fill="#737373" fill-opacity="1"><g transform="translate(0.70407, 6.468711)"><g><path d="M 4.15625 -2.53125 C 4.4375 -2.445312 4.65625 -2.300781 4.8125 -2.09375 C 4.96875 -1.882812 5.046875 -1.628906 5.046875 -1.328125 C 5.046875 -0.898438 4.878906 -0.570312 4.546875 -0.34375 C 4.222656 -0.113281 3.738281 0 3.09375 0 L 0.578125 0 L 0.578125 -4.875 L 2.96875 -4.875 C 3.5625 -4.875 4.015625 -4.757812 4.328125 -4.53125 C 4.648438 -4.300781 4.8125 -3.992188 4.8125 -3.609375 C 4.8125 -3.367188 4.753906 -3.15625 4.640625 -2.96875 C 4.523438 -2.789062 4.363281 -2.644531 4.15625 -2.53125 Z M 1.703125 -4.03125 L 1.703125 -2.875 L 2.828125 -2.875 C 3.097656 -2.875 3.304688 -2.921875 3.453125 -3.015625 C 3.597656 -3.117188 3.671875 -3.265625 3.671875 -3.453125 C 3.671875 -3.648438 3.597656 -3.796875 3.453125 -3.890625 C 3.304688 -3.984375 3.097656 -4.03125 2.828125 -4.03125 Z M 3.015625 -0.84375 C 3.316406 -0.84375 3.539062 -0.890625 3.6875 -0.984375 C 3.84375 -1.085938 3.921875 -1.242188 3.921875 -1.453125 C 3.921875 -1.859375 3.617188 -2.0625 3.015625 -2.0625 L 1.703125 -2.0625 L 1.703125 -0.84375 Z M 3.015625 -0.84375 "/></g></g></g><g fill="#737373" fill-opacity="1"><g transform="translate(7.756736, 6.468711)"><g><path d="M 0.578125 -4.875 L 1.703125 -4.875 L 1.703125 0 L 0.578125 0 Z M 0.578125 -4.875 "/></g></g></g><g fill="#737373" fill-opacity="1"><g transform="translate(11.763929, 6.468711)"><g><path d="M 5.015625 0 L 5.015625 -2.921875 L 3.578125 -0.515625 L 3.0625 -0.515625 L 1.640625 -2.859375 L 1.640625 0 L 0.578125 0 L 0.578125 -4.875 L 1.515625 -4.875 L 3.34375 -1.84375 L 5.140625 -4.875 L 6.0625 -4.875 L 6.078125 0 Z M 5.015625 0 "/></g></g></g><g fill="#737373" fill-opacity="1"><g transform="translate(20.140714, 6.468711)"><g/></g></g><g fill="#737373" fill-opacity="1"><g transform="translate(23.834296, 6.468711)"><g><path d="M 4.328125 0.078125 L 3.75 -0.453125 C 3.28125 -0.0976562 2.734375 0.078125 2.109375 0.078125 C 1.753906 0.078125 1.4375 0.0195312 1.15625 -0.09375 C 0.875 -0.207031 0.648438 -0.363281 0.484375 -0.5625 C 0.328125 -0.769531 0.25 -1 0.25 -1.25 C 0.25 -1.550781 0.332031 -1.816406 0.5 -2.046875 C 0.675781 -2.273438 0.953125 -2.492188 1.328125 -2.703125 C 1.148438 -2.890625 1.019531 -3.066406 0.9375 -3.234375 C 0.863281 -3.398438 0.828125 -3.570312 0.828125 -3.75 C 0.828125 -3.976562 0.890625 -4.179688 1.015625 -4.359375 C 1.140625 -4.546875 1.316406 -4.6875 1.546875 -4.78125 C 1.773438 -4.882812 2.039062 -4.9375 2.34375 -4.9375 C 2.757812 -4.9375 3.097656 -4.832031 3.359375 -4.625 C 3.617188 -4.425781 3.75 -4.15625 3.75 -3.8125 C 3.75 -3.5625 3.671875 -3.335938 3.515625 -3.140625 C 3.367188 -2.953125 3.125 -2.765625 2.78125 -2.578125 L 3.671875 -1.75 C 3.785156 -1.976562 3.867188 -2.234375 3.921875 -2.515625 L 4.796875 -2.25 C 4.703125 -1.8125 4.550781 -1.441406 4.34375 -1.140625 L 4.921875 -0.609375 Z M 2.34375 -4.203125 C 2.175781 -4.203125 2.046875 -4.160156 1.953125 -4.078125 C 1.859375 -3.992188 1.8125 -3.882812 1.8125 -3.75 C 1.8125 -3.65625 1.835938 -3.566406 1.890625 -3.484375 C 1.941406 -3.398438 2.039062 -3.285156 2.1875 -3.140625 C 2.425781 -3.265625 2.59375 -3.375 2.6875 -3.46875 C 2.78125 -3.570312 2.828125 -3.679688 2.828125 -3.796875 C 2.828125 -3.921875 2.785156 -4.019531 2.703125 -4.09375 C 2.617188 -4.164062 2.5 -4.203125 2.34375 -4.203125 Z M 2.1875 -0.765625 C 2.53125 -0.765625 2.832031 -0.859375 3.09375 -1.046875 L 1.921875 -2.15625 C 1.703125 -2.03125 1.546875 -1.90625 1.453125 -1.78125 C 1.359375 -1.664062 1.3125 -1.53125 1.3125 -1.375 C 1.3125 -1.1875 1.390625 -1.035156 1.546875 -0.921875 C 1.710938 -0.816406 1.925781 -0.765625 2.1875 -0.765625 Z M 2.1875 -0.765625 "/></g></g></g><g fill="#737373" fill-opacity="1"><g transform="translate(30.62911, 6.468711)"><g/></g></g><g fill="#737373" fill-opacity="1"><g transform="translate(34.322692, 6.468711)"><g><path d="M 5.015625 0 L 5.015625 -2.921875 L 3.578125 -0.515625 L 3.0625 -0.515625 L 1.640625 -2.859375 L 1.640625 0 L 0.578125 0 L 0.578125 -4.875 L 1.515625 -4.875 L 3.34375 -1.84375 L 5.140625 -4.875 L 6.0625 -4.875 L 6.078125 0 Z M 5.015625 0 "/></g></g></g><g fill="#737373" fill-opacity="1"><g transform="translate(42.699478, 6.468711)"><g><path d="M 4.359375 -0.90625 L 4.359375 0 L 0.578125 0 L 0.578125 -4.875 L 4.265625 -4.875 L 4.265625 -3.96875 L 1.703125 -3.96875 L 1.703125 -2.90625 L 3.96875 -2.90625 L 3.96875 -2.03125 L 1.703125 -2.03125 L 1.703125 -0.90625 Z M 4.359375 -0.90625 "/></g></g></g><g fill="#737373" fill-opacity="1"><g transform="translate(49.097055, 6.468711)"><g><path d="M 2.6875 -4.875 C 3.125 -4.875 3.5 -4.800781 3.8125 -4.65625 C 4.132812 -4.519531 4.378906 -4.316406 4.546875 -4.046875 C 4.722656 -3.785156 4.8125 -3.472656 4.8125 -3.109375 C 4.8125 -2.753906 4.722656 -2.441406 4.546875 -2.171875 C 4.378906 -1.898438 4.132812 -1.691406 3.8125 -1.546875 C 3.5 -1.410156 3.125 -1.34375 2.6875 -1.34375 L 1.703125 -1.34375 L 1.703125 0 L 0.578125 0 L 0.578125 -4.875 Z M 2.625 -2.265625 C 2.96875 -2.265625 3.226562 -2.335938 3.40625 -2.484375 C 3.582031 -2.628906 3.671875 -2.835938 3.671875 -3.109375 C 3.671875 -3.378906 3.582031 -3.585938 3.40625 -3.734375 C 3.226562 -3.878906 2.96875 -3.953125 2.625 -3.953125 L 1.703125 -3.953125 L 1.703125 -2.265625 Z M 2.625 -2.265625 "/></g></g></g><g fill="#737373" fill-opacity="1"><g transform="translate(55.919738, 6.468711)"><g><path d="M 1.703125 -3.96875 L 1.703125 -2.6875 L 3.96875 -2.6875 L 3.96875 -1.78125 L 1.703125 -1.78125 L 1.703125 0 L 0.578125 0 L 0.578125 -4.875 L 4.265625 -4.875 L 4.265625 -3.96875 Z M 1.703125 -3.96875 "/></g></g></g><g fill="#737373" fill-opacity="1"><g transform="translate(62.094305, 6.468711)"><g/></g></g><g fill="#737373" fill-opacity="1"><g transform="translate(65.787887, 6.468711)"><g><path d="M 2.1875 0.078125 C 1.800781 0.078125 1.425781 0.0234375 1.0625 -0.078125 C 0.695312 -0.179688 0.40625 -0.316406 0.1875 -0.484375 L 0.578125 -1.328125 C 0.785156 -1.171875 1.03125 -1.046875 1.3125 -0.953125 C 1.601562 -0.867188 1.894531 -0.828125 2.1875 -0.828125 C 2.507812 -0.828125 2.742188 -0.875 2.890625 -0.96875 C 3.046875 -1.0625 3.125 -1.1875 3.125 -1.34375 C 3.125 -1.457031 3.078125 -1.550781 2.984375 -1.625 C 2.898438 -1.707031 2.785156 -1.769531 2.640625 -1.8125 C 2.503906 -1.863281 2.3125 -1.914062 2.0625 -1.96875 C 1.695312 -2.0625 1.394531 -2.148438 1.15625 -2.234375 C 0.914062 -2.328125 0.710938 -2.46875 0.546875 -2.65625 C 0.378906 -2.851562 0.296875 -3.113281 0.296875 -3.4375 C 0.296875 -3.726562 0.367188 -3.988281 0.515625 -4.21875 C 0.671875 -4.445312 0.898438 -4.628906 1.203125 -4.765625 C 1.515625 -4.898438 1.894531 -4.96875 2.34375 -4.96875 C 2.65625 -4.96875 2.957031 -4.925781 3.25 -4.84375 C 3.550781 -4.769531 3.816406 -4.664062 4.046875 -4.53125 L 3.6875 -3.671875 C 3.238281 -3.929688 2.789062 -4.0625 2.34375 -4.0625 C 2.03125 -4.0625 1.796875 -4.007812 1.640625 -3.90625 C 1.492188 -3.800781 1.421875 -3.664062 1.421875 -3.5 C 1.421875 -3.332031 1.503906 -3.207031 1.671875 -3.125 C 1.847656 -3.039062 2.113281 -2.960938 2.46875 -2.890625 C 2.84375 -2.796875 3.148438 -2.703125 3.390625 -2.609375 C 3.628906 -2.523438 3.832031 -2.390625 4 -2.203125 C 4.164062 -2.015625 4.25 -1.753906 4.25 -1.421875 C 4.25 -1.148438 4.171875 -0.898438 4.015625 -0.671875 C 3.859375 -0.441406 3.625 -0.257812 3.3125 -0.125 C 3 0.0078125 2.625 0.078125 2.1875 0.078125 Z M 2.1875 0.078125 "/></g></g></g><g fill="#737373" fill-opacity="1"><g transform="translate(71.95548, 6.468711)"><g><path d="M 4.359375 -0.90625 L 4.359375 0 L 0.578125 0 L 0.578125 -4.875 L 4.265625 -4.875 L 4.265625 -3.96875 L 1.703125 -3.96875 L 1.703125 -2.90625 L 3.96875 -2.90625 L 3.96875 -2.03125 L 1.703125 -2.03125 L 1.703125 -0.90625 Z M 4.359375 -0.90625 "/></g></g></g><g fill="#737373" fill-opacity="1"><g transform="translate(78.353057, 6.468711)"><g><path d="M 3.6875 0 L 2.75 -1.359375 L 1.703125 -1.359375 L 1.703125 0 L 0.578125 0 L 0.578125 -4.875 L 2.6875 -4.875 C 3.125 -4.875 3.5 -4.800781 3.8125 -4.65625 C 4.132812 -4.519531 4.378906 -4.316406 4.546875 -4.046875 C 4.722656 -3.785156 4.8125 -3.472656 4.8125 -3.109375 C 4.8125 -2.742188 4.722656 -2.429688 4.546875 -2.171875 C 4.367188 -1.910156 4.125 -1.707031 3.8125 -1.5625 L 4.90625 0 Z M 3.671875 -3.109375 C 3.671875 -3.378906 3.582031 -3.585938 3.40625 -3.734375 C 3.226562 -3.878906 2.96875 -3.953125 2.625 -3.953125 L 1.703125 -3.953125 L 1.703125 -2.265625 L 2.625 -2.265625 C 2.96875 -2.265625 3.226562 -2.335938 3.40625 -2.484375 C 3.582031 -2.628906 3.671875 -2.835938 3.671875 -3.109375 Z M 3.671875 -3.109375 "/></g></g></g><g fill="#737373" fill-opacity="1"><g transform="translate(85.196653, 6.468711)"><g><path d="M 5.265625 -4.875 L 3.15625 0 L 2.046875 0 L -0.0625 -4.875 L 1.15625 -4.875 L 2.640625 -1.390625 L 4.140625 -4.875 Z M 5.265625 -4.875 "/></g></g></g><g fill="#737373" fill-opacity="1"><g transform="translate(92.116902, 6.468711)"><g><path d="M 0.578125 -4.875 L 1.703125 -4.875 L 1.703125 0 L 0.578125 0 Z M 0.578125 -4.875 "/></g></g></g><g fill="#737373" fill-opacity="1"><g transform="translate(96.124094, 6.468711)"><g><path d="M 2.90625 0.078125 C 2.414062 0.078125 1.96875 -0.0234375 1.5625 -0.234375 C 1.164062 -0.453125 0.847656 -0.753906 0.609375 -1.140625 C 0.378906 -1.523438 0.265625 -1.957031 0.265625 -2.4375 C 0.265625 -2.914062 0.378906 -3.347656 0.609375 -3.734375 C 0.847656 -4.117188 1.164062 -4.421875 1.5625 -4.640625 C 1.96875 -4.859375 2.421875 -4.96875 2.921875 -4.96875 C 3.335938 -4.96875 3.71875 -4.890625 4.0625 -4.734375 C 4.40625 -4.585938 4.691406 -4.375 4.921875 -4.09375 L 4.203125 -3.421875 C 3.867188 -3.804688 3.457031 -4 2.96875 -4 C 2.664062 -4 2.394531 -3.929688 2.15625 -3.796875 C 1.925781 -3.671875 1.742188 -3.488281 1.609375 -3.25 C 1.484375 -3.007812 1.421875 -2.738281 1.421875 -2.4375 C 1.421875 -2.132812 1.484375 -1.863281 1.609375 -1.625 C 1.742188 -1.394531 1.925781 -1.210938 2.15625 -1.078125 C 2.394531 -0.941406 2.664062 -0.875 2.96875 -0.875 C 3.457031 -0.875 3.867188 -1.066406 4.203125 -1.453125 L 4.921875 -0.78125 C 4.691406 -0.5 4.40625 -0.285156 4.0625 -0.140625 C 3.71875 0.00390625 3.332031 0.078125 2.90625 0.078125 Z M 2.90625 0.078125 "/></g></g></g><g fill="#737373" fill-opacity="1"><g transform="translate(102.953751, 6.468711)"><g><path d="M 4.359375 -0.90625 L 4.359375 0 L 0.578125 0 L 0.578125 -4.875 L 4.265625 -4.875 L 4.265625 -3.96875 L 1.703125 -3.96875 L 1.703125 -2.90625 L 3.96875 -2.90625 L 3.96875 -2.03125 L 1.703125 -2.03125 L 1.703125 -0.90625 Z M 4.359375 -0.90625 "/></g></g></g><g fill="#737373" fill-opacity="1"><g transform="translate(109.351328, 6.468711)"><g><path d="M 2.1875 0.078125 C 1.800781 0.078125 1.425781 0.0234375 1.0625 -0.078125 C 0.695312 -0.179688 0.40625 -0.316406 0.1875 -0.484375 L 0.578125 -1.328125 C 0.785156 -1.171875 1.03125 -1.046875 1.3125 -0.953125 C 1.601562 -0.867188 1.894531 -0.828125 2.1875 -0.828125 C 2.507812 -0.828125 2.742188 -0.875 2.890625 -0.96875 C 3.046875 -1.0625 3.125 -1.1875 3.125 -1.34375 C 3.125 -1.457031 3.078125 -1.550781 2.984375 -1.625 C 2.898438 -1.707031 2.785156 -1.769531 2.640625 -1.8125 C 2.503906 -1.863281 2.3125 -1.914062 2.0625 -1.96875 C 1.695312 -2.0625 1.394531 -2.148438 1.15625 -2.234375 C 0.914062 -2.328125 0.710938 -2.46875 0.546875 -2.65625 C 0.378906 -2.851562 0.296875 -3.113281 0.296875 -3.4375 C 0.296875 -3.726562 0.367188 -3.988281 0.515625 -4.21875 C 0.671875 -4.445312 0.898438 -4.628906 1.203125 -4.765625 C 1.515625 -4.898438 1.894531 -4.96875 2.34375 -4.96875 C 2.65625 -4.96875 2.957031 -4.925781 3.25 -4.84375 C 3.550781 -4.769531 3.816406 -4.664062 4.046875 -4.53125 L 3.6875 -3.671875 C 3.238281 -3.929688 2.789062 -4.0625 2.34375 -4.0625 C 2.03125 -4.0625 1.796875 -4.007812 1.640625 -3.90625 C 1.492188 -3.800781 1.421875 -3.664062 1.421875 -3.5 C 1.421875 -3.332031 1.503906 -3.207031 1.671875 -3.125 C 1.847656 -3.039062 2.113281 -2.960938 2.46875 -2.890625 C 2.84375 -2.796875 3.148438 -2.703125 3.390625 -2.609375 C 3.628906 -2.523438 3.832031 -2.390625 4 -2.203125 C 4.164062 -2.015625 4.25 -1.753906 4.25 -1.421875 C 4.25 -1.148438 4.171875 -0.898438 4.015625 -0.671875 C 3.859375 -0.441406 3.625 -0.257812 3.3125 -0.125 C 3 0.0078125 2.625 0.078125 2.1875 0.078125 Z M 2.1875 0.078125 "/></g></g></g></g></g></svg>