<svg xmlns="http://www.w3.org/2000/svg" xmlns:xlink="http://www.w3.org/1999/xlink" width="350" zoomAndPan="magnify" viewBox="0 0 262.5 89.999999" height="120" preserveAspectRatio="xMidYMid meet" version="1.0"><defs><g/><clipPath id="1ac6eabe81"><path d="M 0 0.0859375 L 262 0.0859375 L 262 89.914062 L 0 89.914062 Z M 0 0.0859375 " clip-rule="nonzero"/></clipPath><clipPath id="2fa5ad296a"><path d="M 29.390625 5.367188 L 72.808594 5.367188 L 72.808594 84.714844 L 29.390625 84.714844 Z M 29.390625 5.367188 " clip-rule="nonzero"/></clipPath><clipPath id="c2e483b1bb"><rect x="0" width="145" y="0" height="12"/></clipPath></defs><g clip-path="url(#1ac6eabe81)"><path fill="#ffffff" d="M 0 0.0859375 L 262 0.0859375 L 262 89.914062 L 0 89.914062 Z M 0 0.0859375 " fill-opacity="1" fill-rule="nonzero"/><path fill="#ffffff" d="M 0 0.0859375 L 262 0.0859375 L 262 89.914062 L 0 89.914062 Z M 0 0.0859375 " fill-opacity="1" fill-rule="nonzero"/></g><g clip-path="url(#2fa5ad296a)"><path fill="#ed1c24" d="M 70.507812 39.746094 C 70.140625 40.667969 69.703125 41.515625 69.21875 42.3125 C 68.246094 43.910156 67.074219 45.320312 65.808594 46.722656 C 64.539062 48.121094 63.171875 49.507812 61.785156 50.976562 C 60.398438 52.441406 58.980469 53.988281 57.640625 55.738281 C 57.308594 56.179688 56.980469 56.632812 56.65625 57.09375 C 56.339844 57.566406 56.027344 58.050781 55.726562 58.546875 C 55.128906 59.550781 54.578125 60.632812 54.140625 61.800781 C 54.03125 62.097656 53.921875 62.386719 53.828125 62.695312 C 53.78125 62.847656 53.734375 63 53.6875 63.152344 L 53.570312 63.621094 C 53.40625 64.242188 53.300781 64.890625 53.21875 65.542969 C 53.070312 66.851562 53.128906 68.207031 53.394531 69.484375 C 53.652344 70.769531 54.113281 71.96875 54.703125 73.042969 C 55.289062 74.117188 56 75.066406 56.78125 75.910156 C 57.554688 76.753906 58.417969 77.476562 59.3125 78.121094 C 59.539062 78.28125 59.761719 78.4375 59.996094 78.585938 L 60.699219 79.015625 C 60.9375 79.152344 61.175781 79.285156 61.425781 79.40625 C 61.667969 79.53125 61.914062 79.652344 62.167969 79.761719 C 62.066406 79.5 61.960938 79.25 61.851562 79.003906 C 61.800781 78.878906 61.742188 78.757812 61.6875 78.636719 C 61.632812 78.511719 61.585938 78.386719 61.53125 78.265625 L 61.21875 77.539062 C 61.121094 77.292969 61.019531 77.054688 60.921875 76.816406 C 60.53125 75.863281 60.167969 74.933594 59.890625 74.015625 C 59.609375 73.101562 59.394531 72.210938 59.273438 71.359375 C 59.15625 70.507812 59.132812 69.699219 59.195312 68.933594 C 59.203125 68.746094 59.238281 68.554688 59.261719 68.371094 C 59.277344 68.183594 59.332031 68 59.359375 67.820312 C 59.394531 67.636719 59.449219 67.457031 59.488281 67.28125 L 59.648438 66.746094 C 59.769531 66.390625 59.902344 66.039062 60.058594 65.6875 L 60.175781 65.421875 C 60.21875 65.335938 60.265625 65.246094 60.304688 65.160156 C 60.386719 64.980469 60.484375 64.804688 60.578125 64.625 C 61.332031 63.203125 62.378906 61.75 63.527344 60.234375 C 64.675781 58.722656 65.9375 57.15625 67.171875 55.46875 C 68.40625 53.78125 69.625 51.96875 70.636719 49.957031 C 71.140625 48.949219 71.59375 47.894531 71.949219 46.789062 C 72.304688 45.6875 72.566406 44.539062 72.679688 43.375 C 72.796875 42.210938 72.765625 41.03125 72.558594 39.90625 C 72.347656 38.78125 71.976562 37.707031 71.414062 36.757812 C 71.160156 37.832031 70.878906 38.824219 70.507812 39.746094 Z M 66.347656 23.164062 C 65.9375 24.539062 65.417969 25.835938 64.796875 27.070312 C 63.558594 29.539062 61.945312 31.761719 60.175781 33.921875 C 58.398438 36.082031 56.457031 38.175781 54.488281 40.34375 C 52.515625 42.511719 50.507812 44.753906 48.613281 47.226562 C 48.140625 47.847656 47.679688 48.484375 47.222656 49.136719 C 46.773438 49.789062 46.335938 50.464844 45.910156 51.15625 C 45.070312 52.542969 44.300781 54.023438 43.675781 55.613281 C 43.050781 57.199219 42.578125 58.898438 42.347656 60.65625 C 42.113281 62.414062 42.152344 64.226562 42.460938 65.960938 C 42.761719 67.695312 43.328125 69.347656 44.074219 70.847656 C 44.820312 72.351562 45.738281 73.710938 46.753906 74.941406 C 47.011719 75.246094 47.269531 75.550781 47.53125 75.84375 C 47.804688 76.128906 48.074219 76.414062 48.351562 76.695312 C 48.621094 76.980469 48.917969 77.234375 49.203125 77.503906 C 49.34375 77.632812 49.488281 77.765625 49.632812 77.894531 C 49.777344 78.023438 49.929688 78.144531 50.078125 78.269531 C 50.378906 78.511719 50.671875 78.761719 50.976562 79 L 51.910156 79.683594 C 52.066406 79.792969 52.222656 79.90625 52.378906 80.011719 C 52.542969 80.117188 52.699219 80.222656 52.863281 80.324219 C 53.1875 80.53125 53.511719 80.734375 53.84375 80.929688 C 53.664062 80.585938 53.480469 80.253906 53.292969 79.921875 C 53.203125 79.753906 53.105469 79.59375 53.011719 79.429688 C 52.917969 79.265625 52.832031 79.097656 52.742188 78.929688 L 52.199219 77.949219 C 52.03125 77.617188 51.851562 77.292969 51.683594 76.96875 C 51.015625 75.652344 50.371094 74.359375 49.863281 73.050781 C 49.347656 71.746094 48.925781 70.445312 48.648438 69.164062 C 48.371094 67.882812 48.238281 66.628906 48.261719 65.410156 C 48.265625 65.257812 48.257812 65.109375 48.273438 64.957031 C 48.289062 64.804688 48.296875 64.65625 48.308594 64.503906 L 48.320312 64.28125 C 48.328125 64.207031 48.339844 64.132812 48.351562 64.058594 L 48.410156 63.613281 C 48.421875 63.464844 48.457031 63.316406 48.484375 63.171875 L 48.5625 62.730469 C 48.632812 62.441406 48.703125 62.148438 48.777344 61.859375 C 48.941406 61.28125 49.125 60.707031 49.355469 60.136719 L 49.523438 59.710938 L 49.714844 59.285156 C 49.832031 59 49.976562 58.71875 50.113281 58.4375 C 51.238281 56.175781 52.800781 53.960938 54.496094 51.722656 C 56.199219 49.488281 58.058594 47.226562 59.875 44.839844 C 61.691406 42.449219 63.484375 39.929688 65.003906 37.15625 C 65.761719 35.769531 66.449219 34.324219 67.011719 32.8125 C 67.574219 31.304688 68.011719 29.734375 68.261719 28.132812 C 68.765625 24.933594 68.460938 21.613281 67.203125 18.808594 C 67.019531 20.335938 66.75 21.785156 66.347656 23.164062 Z M 60.570312 5.363281 C 61.261719 7.175781 61.675781 9.117188 61.808594 11.109375 C 61.949219 13.101562 61.8125 15.132812 61.441406 17.128906 C 61.074219 19.121094 60.476562 21.074219 59.726562 22.949219 C 58.980469 24.824219 58.082031 26.625 57.09375 28.351562 C 55.121094 31.808594 52.808594 34.972656 50.464844 37.992188 C 48.125 41.011719 45.730469 43.894531 43.527344 46.785156 C 41.335938 49.675781 39.304688 52.578125 37.855469 55.59375 L 37.585938 56.15625 C 37.492188 56.34375 37.421875 56.539062 37.335938 56.726562 L 37.09375 57.296875 L 36.875 57.871094 C 36.582031 58.636719 36.351562 59.410156 36.144531 60.1875 C 36.089844 60.382812 36.0625 60.578125 36.015625 60.777344 C 35.972656 60.972656 35.925781 61.167969 35.886719 61.363281 L 35.792969 61.957031 C 35.761719 62.15625 35.722656 62.355469 35.707031 62.554688 L 35.644531 63.152344 C 35.632812 63.253906 35.621094 63.351562 35.613281 63.453125 L 35.601562 63.753906 C 35.59375 63.957031 35.585938 64.15625 35.574219 64.359375 C 35.566406 64.460938 35.566406 64.5625 35.570312 64.664062 L 35.574219 64.96875 C 35.589844 66.59375 35.820312 68.253906 36.238281 69.917969 C 36.660156 71.585938 37.265625 73.253906 37.996094 74.910156 C 38.714844 76.574219 39.597656 78.199219 40.527344 79.832031 C 40.761719 80.238281 41.003906 80.640625 41.238281 81.054688 L 41.988281 82.265625 C 42.109375 82.46875 42.230469 82.675781 42.359375 82.878906 C 42.488281 83.078125 42.621094 83.277344 42.746094 83.480469 C 43.003906 83.886719 43.261719 84.292969 43.511719 84.710938 C 43.109375 84.445312 42.710938 84.167969 42.316406 83.886719 C 42.117188 83.746094 41.925781 83.601562 41.726562 83.460938 C 41.535156 83.316406 41.34375 83.164062 41.152344 83.015625 L 40.015625 82.101562 C 39.648438 81.789062 39.289062 81.457031 38.921875 81.132812 C 38.742188 80.96875 38.554688 80.808594 38.378906 80.640625 C 38.203125 80.472656 38.03125 80.296875 37.859375 80.125 L 37.074219 79.339844 L 36.824219 79.070312 C 36.488281 78.707031 36.160156 78.335938 35.828125 77.964844 C 35.507812 77.585938 35.199219 77.191406 34.882812 76.804688 C 33.65625 75.21875 32.554688 73.492188 31.667969 71.601562 C 30.777344 69.71875 30.113281 67.664062 29.773438 65.519531 C 29.429688 63.375 29.40625 61.144531 29.71875 58.984375 C 30.027344 56.824219 30.625 54.730469 31.417969 52.769531 C 32.203125 50.804688 33.175781 48.960938 34.234375 47.226562 C 34.503906 46.796875 34.773438 46.363281 35.050781 45.945312 C 35.332031 45.527344 35.601562 45.101562 35.890625 44.695312 C 36.464844 43.875 37.046875 43.074219 37.644531 42.289062 C 40.035156 39.160156 42.582031 36.296875 45.078125 33.496094 C 47.574219 30.695312 50.03125 27.960938 52.265625 25.121094 C 54.492188 22.273438 56.5 19.324219 57.980469 16.066406 C 58.71875 14.4375 59.328125 12.734375 59.765625 10.949219 C 60.199219 9.164062 60.449219 7.296875 60.570312 5.363281 " fill-opacity="1" fill-rule="nonzero"/></g><g fill="#191919" fill-opacity="1"><g transform="translate(74.151033, 47.386688)"><g><path d="M 2.203125 -18.515625 L 6.484375 -18.515625 L 6.484375 0 L 2.203125 0 Z M 2.203125 -18.515625 "/></g></g></g><g fill="#191919" fill-opacity="1"><g transform="translate(84.729599, 47.386688)"><g><path d="M 19.046875 0 L 19.015625 -11.109375 L 13.578125 -1.953125 L 11.640625 -1.953125 L 6.21875 -10.875 L 6.21875 0 L 2.203125 0 L 2.203125 -18.515625 L 5.734375 -18.515625 L 12.671875 -7.015625 L 19.5 -18.515625 L 23.015625 -18.515625 L 23.0625 0 Z M 19.046875 0 "/></g></g></g><g fill="#191919" fill-opacity="1"><g transform="translate(111.889649, 47.386688)"><g><path d="M 2.203125 -18.515625 L 6.484375 -18.515625 L 6.484375 0 L 2.203125 0 Z M 2.203125 -18.515625 "/></g></g></g><g fill="#191919" fill-opacity="1"><g transform="translate(122.468216, 47.386688)"><g/></g></g><g fill="#191919" fill-opacity="1"><g transform="translate(131.856724, 47.386688)"><g><path d="M 2.203125 -18.515625 L 10.609375 -18.515625 C 12.617188 -18.515625 14.394531 -18.128906 15.9375 -17.359375 C 17.476562 -16.597656 18.675781 -15.519531 19.53125 -14.125 C 20.382812 -12.726562 20.8125 -11.109375 20.8125 -9.265625 C 20.8125 -7.410156 20.382812 -5.785156 19.53125 -4.390625 C 18.675781 -2.992188 17.476562 -1.910156 15.9375 -1.140625 C 14.394531 -0.378906 12.617188 0 10.609375 0 L 2.203125 0 Z M 10.390625 -3.515625 C 12.242188 -3.515625 13.722656 -4.03125 14.828125 -5.0625 C 15.929688 -6.09375 16.484375 -7.492188 16.484375 -9.265625 C 16.484375 -11.023438 15.929688 -12.421875 14.828125 -13.453125 C 13.722656 -14.484375 12.242188 -15 10.390625 -15 L 6.484375 -15 L 6.484375 -3.515625 Z M 10.390625 -3.515625 "/></g></g></g><g fill="#191919" fill-opacity="1"><g transform="translate(155.605265, 47.386688)"><g><path d="M 16.53125 -3.4375 L 16.53125 0 L 2.203125 0 L 2.203125 -18.515625 L 16.1875 -18.515625 L 16.1875 -15.078125 L 6.453125 -15.078125 L 6.453125 -11.0625 L 15.046875 -11.0625 L 15.046875 -7.71875 L 6.453125 -7.71875 L 6.453125 -3.4375 Z M 16.53125 -3.4375 "/></g></g></g><g fill="#191919" fill-opacity="1"><g transform="translate(175.254719, 47.386688)"><g><path d="M 8.28125 0.3125 C 6.8125 0.3125 5.394531 0.113281 4.03125 -0.28125 C 2.664062 -0.675781 1.566406 -1.191406 0.734375 -1.828125 L 2.203125 -5.046875 C 2.992188 -4.460938 3.9375 -3.992188 5.03125 -3.640625 C 6.125 -3.296875 7.21875 -3.125 8.3125 -3.125 C 9.519531 -3.125 10.414062 -3.300781 11 -3.65625 C 11.582031 -4.019531 11.875 -4.503906 11.875 -5.109375 C 11.875 -5.546875 11.703125 -5.910156 11.359375 -6.203125 C 11.015625 -6.492188 10.570312 -6.726562 10.03125 -6.90625 C 9.5 -7.082031 8.773438 -7.273438 7.859375 -7.484375 C 6.441406 -7.816406 5.285156 -8.148438 4.390625 -8.484375 C 3.492188 -8.828125 2.722656 -9.367188 2.078125 -10.109375 C 1.429688 -10.847656 1.109375 -11.832031 1.109375 -13.0625 C 1.109375 -14.144531 1.398438 -15.117188 1.984375 -15.984375 C 2.566406 -16.859375 3.441406 -17.550781 4.609375 -18.0625 C 5.785156 -18.570312 7.222656 -18.828125 8.921875 -18.828125 C 10.097656 -18.828125 11.25 -18.6875 12.375 -18.40625 C 13.507812 -18.125 14.5 -17.71875 15.34375 -17.1875 L 14.015625 -13.9375 C 12.304688 -14.90625 10.597656 -15.390625 8.890625 -15.390625 C 7.691406 -15.390625 6.804688 -15.195312 6.234375 -14.8125 C 5.660156 -14.425781 5.375 -13.914062 5.375 -13.28125 C 5.375 -12.644531 5.703125 -12.171875 6.359375 -11.859375 C 7.023438 -11.554688 8.035156 -11.253906 9.390625 -10.953125 C 10.796875 -10.617188 11.945312 -10.28125 12.84375 -9.9375 C 13.75 -9.601562 14.523438 -9.078125 15.171875 -8.359375 C 15.816406 -7.640625 16.140625 -6.660156 16.140625 -5.421875 C 16.140625 -4.359375 15.84375 -3.390625 15.25 -2.515625 C 14.65625 -1.648438 13.765625 -0.960938 12.578125 -0.453125 C 11.398438 0.0546875 9.96875 0.3125 8.28125 0.3125 Z M 8.28125 0.3125 "/></g></g></g><g fill="#191919" fill-opacity="1"><g transform="translate(194.031461, 47.386688)"><g><path d="M 2.203125 -18.515625 L 6.484375 -18.515625 L 6.484375 0 L 2.203125 0 Z M 2.203125 -18.515625 "/></g></g></g><g fill="#191919" fill-opacity="1"><g transform="translate(204.610027, 47.386688)"><g><path d="M 14.703125 -9.546875 L 18.625 -9.546875 L 18.625 -2.03125 C 17.613281 -1.28125 16.445312 -0.703125 15.125 -0.296875 C 13.800781 0.109375 12.472656 0.3125 11.140625 0.3125 C 9.210938 0.3125 7.484375 -0.09375 5.953125 -0.90625 C 4.421875 -1.726562 3.21875 -2.863281 2.34375 -4.3125 C 1.46875 -5.769531 1.03125 -7.421875 1.03125 -9.265625 C 1.03125 -11.097656 1.46875 -12.738281 2.34375 -14.1875 C 3.21875 -15.644531 4.429688 -16.78125 5.984375 -17.59375 C 7.535156 -18.414062 9.28125 -18.828125 11.21875 -18.828125 C 12.84375 -18.828125 14.316406 -18.550781 15.640625 -18 C 16.960938 -17.457031 18.070312 -16.671875 18.96875 -15.640625 L 16.21875 -13.09375 C 14.894531 -14.488281 13.296875 -15.1875 11.421875 -15.1875 C 10.242188 -15.1875 9.195312 -14.9375 8.28125 -14.4375 C 7.363281 -13.945312 6.648438 -13.25 6.140625 -12.34375 C 5.628906 -11.445312 5.375 -10.421875 5.375 -9.265625 C 5.375 -8.117188 5.628906 -7.09375 6.140625 -6.1875 C 6.648438 -5.289062 7.359375 -4.585938 8.265625 -4.078125 C 9.171875 -3.578125 10.207031 -3.328125 11.375 -3.328125 C 12.601562 -3.328125 13.710938 -3.59375 14.703125 -4.125 Z M 14.703125 -9.546875 "/></g></g></g><g fill="#191919" fill-opacity="1"><g transform="translate(226.90406, 47.386688)"><g><path d="M 19.171875 -18.515625 L 19.171875 0 L 15.65625 0 L 6.421875 -11.25 L 6.421875 0 L 2.203125 0 L 2.203125 -18.515625 L 5.734375 -18.515625 L 14.953125 -7.28125 L 14.953125 -18.515625 Z M 19.171875 -18.515625 "/></g></g></g><g transform="matrix(1, 0, 0, 1, 76, 49)"><g clip-path="url(#c2e483b1bb)"><g fill="#737373" fill-opacity="1"><g transform="translate(0.540855, 8.98721)"><g><path d="M 5.1875 -3.15625 C 5.53125 -3.050781 5.800781 -2.867188 6 -2.609375 C 6.195312 -2.347656 6.296875 -2.03125 6.296875 -1.65625 C 6.296875 -1.125 6.085938 -0.710938 5.671875 -0.421875 C 5.265625 -0.140625 4.660156 0 3.859375 0 L 0.71875 0 L 0.71875 -6.078125 L 3.6875 -6.078125 C 4.425781 -6.078125 4.992188 -5.9375 5.390625 -5.65625 C 5.796875 -5.375 6 -4.988281 6 -4.5 C 6 -4.207031 5.925781 -3.941406 5.78125 -3.703125 C 5.632812 -3.472656 5.4375 -3.289062 5.1875 -3.15625 Z M 2.125 -5.015625 L 2.125 -3.59375 L 3.515625 -3.59375 C 3.867188 -3.59375 4.132812 -3.648438 4.3125 -3.765625 C 4.488281 -3.890625 4.578125 -4.070312 4.578125 -4.3125 C 4.578125 -4.550781 4.488281 -4.726562 4.3125 -4.84375 C 4.132812 -4.957031 3.867188 -5.015625 3.515625 -5.015625 Z M 3.765625 -1.0625 C 4.128906 -1.0625 4.40625 -1.117188 4.59375 -1.234375 C 4.78125 -1.359375 4.875 -1.550781 4.875 -1.8125 C 4.875 -2.3125 4.503906 -2.5625 3.765625 -2.5625 L 2.125 -2.5625 L 2.125 -1.0625 Z M 3.765625 -1.0625 "/></g></g></g><g fill="#737373" fill-opacity="1"><g transform="translate(9.334619, 8.98721)"><g><path d="M 0.71875 -6.078125 L 2.125 -6.078125 L 2.125 0 L 0.71875 0 Z M 0.71875 -6.078125 "/></g></g></g><g fill="#737373" fill-opacity="1"><g transform="translate(14.331069, 8.98721)"><g><path d="M 6.25 0 L 6.25 -3.65625 L 4.453125 -0.640625 L 3.828125 -0.640625 L 2.046875 -3.578125 L 2.046875 0 L 0.71875 0 L 0.71875 -6.078125 L 1.890625 -6.078125 L 4.15625 -2.296875 L 6.40625 -6.078125 L 7.5625 -6.078125 L 7.578125 0 Z M 6.25 0 "/></g></g></g><g fill="#737373" fill-opacity="1"><g transform="translate(24.775838, 8.98721)"><g/></g></g><g fill="#737373" fill-opacity="1"><g transform="translate(29.381257, 8.98721)"><g><path d="M 5.390625 0.109375 L 4.671875 -0.578125 C 4.085938 -0.117188 3.40625 0.109375 2.625 0.109375 C 2.1875 0.109375 1.789062 0.0351562 1.4375 -0.109375 C 1.082031 -0.253906 0.804688 -0.453125 0.609375 -0.703125 C 0.410156 -0.953125 0.3125 -1.238281 0.3125 -1.5625 C 0.3125 -1.9375 0.414062 -2.265625 0.625 -2.546875 C 0.84375 -2.835938 1.1875 -3.113281 1.65625 -3.375 C 1.4375 -3.601562 1.273438 -3.816406 1.171875 -4.015625 C 1.078125 -4.222656 1.03125 -4.441406 1.03125 -4.671875 C 1.03125 -4.960938 1.109375 -5.21875 1.265625 -5.4375 C 1.421875 -5.664062 1.640625 -5.84375 1.921875 -5.96875 C 2.210938 -6.09375 2.546875 -6.15625 2.921875 -6.15625 C 3.441406 -6.15625 3.863281 -6.03125 4.1875 -5.78125 C 4.507812 -5.53125 4.671875 -5.191406 4.671875 -4.765625 C 4.671875 -4.453125 4.570312 -4.171875 4.375 -3.921875 C 4.1875 -3.679688 3.882812 -3.445312 3.46875 -3.21875 L 4.59375 -2.1875 C 4.71875 -2.46875 4.816406 -2.785156 4.890625 -3.140625 L 5.984375 -2.796875 C 5.859375 -2.253906 5.671875 -1.796875 5.421875 -1.421875 L 6.140625 -0.75 Z M 2.921875 -5.234375 C 2.710938 -5.234375 2.550781 -5.179688 2.4375 -5.078125 C 2.320312 -4.972656 2.265625 -4.84375 2.265625 -4.6875 C 2.265625 -4.5625 2.296875 -4.441406 2.359375 -4.328125 C 2.421875 -4.222656 2.546875 -4.082031 2.734375 -3.90625 C 3.023438 -4.0625 3.226562 -4.203125 3.34375 -4.328125 C 3.457031 -4.453125 3.515625 -4.585938 3.515625 -4.734375 C 3.515625 -4.878906 3.460938 -5 3.359375 -5.09375 C 3.253906 -5.1875 3.109375 -5.234375 2.921875 -5.234375 Z M 2.734375 -0.953125 C 3.148438 -0.953125 3.523438 -1.070312 3.859375 -1.3125 L 2.390625 -2.6875 C 2.117188 -2.53125 1.925781 -2.375 1.8125 -2.21875 C 1.695312 -2.070312 1.640625 -1.90625 1.640625 -1.71875 C 1.640625 -1.488281 1.738281 -1.300781 1.9375 -1.15625 C 2.132812 -1.019531 2.398438 -0.953125 2.734375 -0.953125 Z M 2.734375 -0.953125 "/></g></g></g><g fill="#737373" fill-opacity="1"><g transform="translate(37.853511, 8.98721)"><g/></g></g><g fill="#737373" fill-opacity="1"><g transform="translate(42.45893, 8.98721)"><g><path d="M 6.25 0 L 6.25 -3.65625 L 4.453125 -0.640625 L 3.828125 -0.640625 L 2.046875 -3.578125 L 2.046875 0 L 0.71875 0 L 0.71875 -6.078125 L 1.890625 -6.078125 L 4.15625 -2.296875 L 6.40625 -6.078125 L 7.5625 -6.078125 L 7.578125 0 Z M 6.25 0 "/></g></g></g><g fill="#737373" fill-opacity="1"><g transform="translate(52.903699, 8.98721)"><g><path d="M 5.421875 -1.125 L 5.421875 0 L 0.71875 0 L 0.71875 -6.078125 L 5.3125 -6.078125 L 5.3125 -4.953125 L 2.125 -4.953125 L 2.125 -3.625 L 4.9375 -3.625 L 4.9375 -2.53125 L 2.125 -2.53125 L 2.125 -1.125 Z M 5.421875 -1.125 "/></g></g></g><g fill="#737373" fill-opacity="1"><g transform="translate(60.88065, 8.98721)"><g><path d="M 3.359375 -6.078125 C 3.890625 -6.078125 4.351562 -5.988281 4.75 -5.8125 C 5.144531 -5.632812 5.453125 -5.378906 5.671875 -5.046875 C 5.890625 -4.710938 6 -4.320312 6 -3.875 C 6 -3.425781 5.890625 -3.035156 5.671875 -2.703125 C 5.453125 -2.367188 5.144531 -2.113281 4.75 -1.9375 C 4.351562 -1.757812 3.890625 -1.671875 3.359375 -1.671875 L 2.125 -1.671875 L 2.125 0 L 0.71875 0 L 0.71875 -6.078125 Z M 3.28125 -2.828125 C 3.695312 -2.828125 4.015625 -2.914062 4.234375 -3.09375 C 4.453125 -3.28125 4.5625 -3.539062 4.5625 -3.875 C 4.5625 -4.21875 4.453125 -4.476562 4.234375 -4.65625 C 4.015625 -4.84375 3.695312 -4.9375 3.28125 -4.9375 L 2.125 -4.9375 L 2.125 -2.828125 Z M 3.28125 -2.828125 "/></g></g></g><g fill="#737373" fill-opacity="1"><g transform="translate(69.387654, 8.98721)"><g><path d="M 2.125 -4.953125 L 2.125 -3.34375 L 4.9375 -3.34375 L 4.9375 -2.21875 L 2.125 -2.21875 L 2.125 0 L 0.71875 0 L 0.71875 -6.078125 L 5.3125 -6.078125 L 5.3125 -4.953125 Z M 2.125 -4.953125 "/></g></g></g><g fill="#737373" fill-opacity="1"><g transform="translate(77.086541, 8.98721)"><g/></g></g><g fill="#737373" fill-opacity="1"><g transform="translate(81.69196, 8.98721)"><g><path d="M 2.71875 0.109375 C 2.238281 0.109375 1.773438 0.046875 1.328125 -0.078125 C 0.878906 -0.210938 0.519531 -0.382812 0.25 -0.59375 L 0.71875 -1.65625 C 0.976562 -1.46875 1.285156 -1.316406 1.640625 -1.203125 C 2.003906 -1.085938 2.367188 -1.03125 2.734375 -1.03125 C 3.128906 -1.03125 3.421875 -1.085938 3.609375 -1.203125 C 3.804688 -1.316406 3.90625 -1.472656 3.90625 -1.671875 C 3.90625 -1.816406 3.847656 -1.9375 3.734375 -2.03125 C 3.617188 -2.132812 3.472656 -2.210938 3.296875 -2.265625 C 3.117188 -2.328125 2.878906 -2.390625 2.578125 -2.453125 C 2.117188 -2.566406 1.738281 -2.675781 1.4375 -2.78125 C 1.144531 -2.894531 0.890625 -3.070312 0.671875 -3.3125 C 0.460938 -3.5625 0.359375 -3.890625 0.359375 -4.296875 C 0.359375 -4.648438 0.453125 -4.96875 0.640625 -5.25 C 0.835938 -5.539062 1.128906 -5.769531 1.515625 -5.9375 C 1.898438 -6.101562 2.367188 -6.1875 2.921875 -6.1875 C 3.316406 -6.1875 3.695312 -6.140625 4.0625 -6.046875 C 4.4375 -5.953125 4.757812 -5.816406 5.03125 -5.640625 L 4.609375 -4.578125 C 4.046875 -4.898438 3.484375 -5.0625 2.921875 -5.0625 C 2.523438 -5.0625 2.234375 -4.992188 2.046875 -4.859375 C 1.859375 -4.734375 1.765625 -4.566406 1.765625 -4.359375 C 1.765625 -4.148438 1.875 -3.992188 2.09375 -3.890625 C 2.3125 -3.796875 2.640625 -3.695312 3.078125 -3.59375 C 3.546875 -3.488281 3.925781 -3.378906 4.21875 -3.265625 C 4.519531 -3.148438 4.773438 -2.972656 4.984375 -2.734375 C 5.191406 -2.503906 5.296875 -2.1875 5.296875 -1.78125 C 5.296875 -1.4375 5.195312 -1.117188 5 -0.828125 C 4.8125 -0.546875 4.519531 -0.316406 4.125 -0.140625 C 3.738281 0.0234375 3.269531 0.109375 2.71875 0.109375 Z M 2.71875 0.109375 "/></g></g></g><g fill="#737373" fill-opacity="1"><g transform="translate(89.382151, 8.98721)"><g><path d="M 5.421875 -1.125 L 5.421875 0 L 0.71875 0 L 0.71875 -6.078125 L 5.3125 -6.078125 L 5.3125 -4.953125 L 2.125 -4.953125 L 2.125 -3.625 L 4.9375 -3.625 L 4.9375 -2.53125 L 2.125 -2.53125 L 2.125 -1.125 Z M 5.421875 -1.125 "/></g></g></g><g fill="#737373" fill-opacity="1"><g transform="translate(97.359102, 8.98721)"><g><path d="M 4.59375 0 L 3.421875 -1.6875 L 2.125 -1.6875 L 2.125 0 L 0.71875 0 L 0.71875 -6.078125 L 3.359375 -6.078125 C 3.890625 -6.078125 4.351562 -5.988281 4.75 -5.8125 C 5.144531 -5.632812 5.453125 -5.378906 5.671875 -5.046875 C 5.890625 -4.710938 6 -4.320312 6 -3.875 C 6 -3.425781 5.890625 -3.035156 5.671875 -2.703125 C 5.453125 -2.378906 5.144531 -2.128906 4.75 -1.953125 L 6.109375 0 Z M 4.5625 -3.875 C 4.5625 -4.21875 4.453125 -4.476562 4.234375 -4.65625 C 4.015625 -4.84375 3.695312 -4.9375 3.28125 -4.9375 L 2.125 -4.9375 L 2.125 -2.8125 L 3.28125 -2.8125 C 3.695312 -2.8125 4.015625 -2.90625 4.234375 -3.09375 C 4.453125 -3.28125 4.5625 -3.539062 4.5625 -3.875 Z M 4.5625 -3.875 "/></g></g></g><g fill="#737373" fill-opacity="1"><g transform="translate(105.892182, 8.98721)"><g><path d="M 6.5625 -6.078125 L 3.9375 0 L 2.546875 0 L -0.078125 -6.078125 L 1.4375 -6.078125 L 3.296875 -1.734375 L 5.171875 -6.078125 Z M 6.5625 -6.078125 "/></g></g></g><g fill="#737373" fill-opacity="1"><g transform="translate(114.520837, 8.98721)"><g><path d="M 0.71875 -6.078125 L 2.125 -6.078125 L 2.125 0 L 0.71875 0 Z M 0.71875 -6.078125 "/></g></g></g><g fill="#737373" fill-opacity="1"><g transform="translate(119.517288, 8.98721)"><g><path d="M 3.625 0.109375 C 3.007812 0.109375 2.453125 -0.0234375 1.953125 -0.296875 C 1.453125 -0.566406 1.054688 -0.941406 0.765625 -1.421875 C 0.484375 -1.898438 0.34375 -2.441406 0.34375 -3.046875 C 0.34375 -3.640625 0.484375 -4.175781 0.765625 -4.65625 C 1.054688 -5.132812 1.453125 -5.507812 1.953125 -5.78125 C 2.453125 -6.050781 3.015625 -6.1875 3.640625 -6.1875 C 4.171875 -6.1875 4.644531 -6.09375 5.0625 -5.90625 C 5.488281 -5.71875 5.847656 -5.453125 6.140625 -5.109375 L 5.234375 -4.28125 C 4.828125 -4.75 4.316406 -4.984375 3.703125 -4.984375 C 3.328125 -4.984375 2.992188 -4.898438 2.703125 -4.734375 C 2.410156 -4.566406 2.179688 -4.335938 2.015625 -4.046875 C 1.847656 -3.753906 1.765625 -3.421875 1.765625 -3.046875 C 1.765625 -2.660156 1.847656 -2.320312 2.015625 -2.03125 C 2.179688 -1.738281 2.410156 -1.507812 2.703125 -1.34375 C 2.992188 -1.175781 3.328125 -1.09375 3.703125 -1.09375 C 4.316406 -1.09375 4.828125 -1.332031 5.234375 -1.8125 L 6.140625 -0.984375 C 5.847656 -0.628906 5.488281 -0.359375 5.0625 -0.171875 C 4.632812 0.015625 4.15625 0.109375 3.625 0.109375 Z M 3.625 0.109375 "/></g></g></g><g fill="#737373" fill-opacity="1"><g transform="translate(128.032987, 8.98721)"><g><path d="M 5.421875 -1.125 L 5.421875 0 L 0.71875 0 L 0.71875 -6.078125 L 5.3125 -6.078125 L 5.3125 -4.953125 L 2.125 -4.953125 L 2.125 -3.625 L 4.9375 -3.625 L 4.9375 -2.53125 L 2.125 -2.53125 L 2.125 -1.125 Z M 5.421875 -1.125 "/></g></g></g><g fill="#737373" fill-opacity="1"><g transform="translate(136.009938, 8.98721)"><g><path d="M 2.71875 0.109375 C 2.238281 0.109375 1.773438 0.046875 1.328125 -0.078125 C 0.878906 -0.210938 0.519531 -0.382812 0.25 -0.59375 L 0.71875 -1.65625 C 0.976562 -1.46875 1.285156 -1.316406 1.640625 -1.203125 C 2.003906 -1.085938 2.367188 -1.03125 2.734375 -1.03125 C 3.128906 -1.03125 3.421875 -1.085938 3.609375 -1.203125 C 3.804688 -1.316406 3.90625 -1.472656 3.90625 -1.671875 C 3.90625 -1.816406 3.847656 -1.9375 3.734375 -2.03125 C 3.617188 -2.132812 3.472656 -2.210938 3.296875 -2.265625 C 3.117188 -2.328125 2.878906 -2.390625 2.578125 -2.453125 C 2.117188 -2.566406 1.738281 -2.675781 1.4375 -2.78125 C 1.144531 -2.894531 0.890625 -3.070312 0.671875 -3.3125 C 0.460938 -3.5625 0.359375 -3.890625 0.359375 -4.296875 C 0.359375 -4.648438 0.453125 -4.96875 0.640625 -5.25 C 0.835938 -5.539062 1.128906 -5.769531 1.515625 -5.9375 C 1.898438 -6.101562 2.367188 -6.1875 2.921875 -6.1875 C 3.316406 -6.1875 3.695312 -6.140625 4.0625 -6.046875 C 4.4375 -5.953125 4.757812 -5.816406 5.03125 -5.640625 L 4.609375 -4.578125 C 4.046875 -4.898438 3.484375 -5.0625 2.921875 -5.0625 C 2.523438 -5.0625 2.234375 -4.992188 2.046875 -4.859375 C 1.859375 -4.734375 1.765625 -4.566406 1.765625 -4.359375 C 1.765625 -4.148438 1.875 -3.992188 2.09375 -3.890625 C 2.3125 -3.796875 2.640625 -3.695312 3.078125 -3.59375 C 3.546875 -3.488281 3.925781 -3.378906 4.21875 -3.265625 C 4.519531 -3.148438 4.773438 -2.972656 4.984375 -2.734375 C 5.191406 -2.503906 5.296875 -2.1875 5.296875 -1.78125 C 5.296875 -1.4375 5.195312 -1.117188 5 -0.828125 C 4.8125 -0.546875 4.519531 -0.316406 4.125 -0.140625 C 3.738281 0.0234375 3.269531 0.109375 2.71875 0.109375 Z M 2.71875 0.109375 "/></g></g></g></g></g></svg>